<svg id="Layer_1" data-name="Layer 1" xmlns="http://www.w3.org/2000/svg" viewBox="0 0 500 662"><defs><style>.cls-1{fill:#fff;}</style></defs><title>B162-ODT-Icon-Black-Marker</title><path d="M451.52,0h-403A48.49,48.49,0,0,0,0,48.48v403A48.49,48.49,0,0,0,48.48,500h103L245,662l93.53-162h113A48.49,48.49,0,0,0,500,451.52v-403A48.49,48.49,0,0,0,451.52,0Z"/><path class="cls-1" d="M405.31,240.31,353.69,188.7A16.56,16.56,0,0,1,348.85,177V84.62a33.18,33.18,0,0,0-33.08-33.08H134.9a49.77,49.77,0,0,0-49.62,49.61V365.76a49.76,49.76,0,0,0,49.62,49.61H237.67a16.53,16.53,0,0,0,0-33.06H134.9a16.53,16.53,0,0,1-16.54-16.53V101.15A16.53,16.53,0,0,1,134.9,84.62H299.24a16.53,16.53,0,0,1,16.53,16.53v193.7c0,16.17-20.81,22.72-30.08,9.49l-7.48-10.69a24.81,24.81,0,1,0-40.64,28.46l83.53,119.3a16.54,16.54,0,0,0,13.55,7h63.82A16.53,16.53,0,0,0,415,431.93V263.7A33,33,0,0,0,405.31,240.31Z"/><path class="cls-1" d="M214.59,112.44A57.54,57.54,0,0,0,157.05,170c0,40.9,49.08,94.4,51.28,96.61a8.18,8.18,0,0,0,11.53.89,7.65,7.65,0,0,0,.91-.89c2.12-2.21,51.36-55.55,51.36-96.61A57.54,57.54,0,0,0,214.59,112.44ZM215.1,204a35.73,35.73,0,1,1,35.72-35.73A35.73,35.73,0,0,1,215.1,204Z"/></svg>