<svg id="Layer_1" data-name="Layer 1" xmlns="http://www.w3.org/2000/svg" viewBox="0 0 500 500"><title>B162-ODT-Icon-Black-Mono</title><path d="M445.61,237.79l-65-65a20.79,20.79,0,0,1-6.1-14.72V41.67A41.79,41.79,0,0,0,332.81,0H105A62.69,62.69,0,0,0,42.46,62.5V395.82A62.69,62.69,0,0,0,105,458.32H234.43a20.83,20.83,0,1,0,0-41.65H105a20.82,20.82,0,0,1-20.83-20.82V62.5A20.83,20.83,0,0,1,105,41.67H312A20.83,20.83,0,0,1,332.81,62.5v244c0,20.36-26.2,28.62-37.88,11.95L285.5,305a31.25,31.25,0,0,0-51.2,35.86L339.53,491.12A20.85,20.85,0,0,0,356.59,500H437a20.83,20.83,0,0,0,20.83-20.83V267.26A41.59,41.59,0,0,0,445.61,237.79Z"/><path d="M205.36,76.71a72.49,72.49,0,0,0-72.49,72.49c0,51.52,61.83,118.91,64.61,121.69A10.3,10.3,0,0,0,212,272a9.36,9.36,0,0,0,1.14-1.13c2.68-2.78,64.71-70,64.71-121.69A72.5,72.5,0,0,0,205.36,76.71ZM206,192a45,45,0,1,1,45-45A45,45,0,0,1,206,192Z"/></svg>